<?xml version="1.0" encoding="utf-8"?>
<!-- Generator: Adobe Illustrator 23.0.5, SVG Export Plug-In . SVG Version: 6.00 Build 0)  -->
<svg version="1.1" id="Layer_1" xmlns="http://www.w3.org/2000/svg" xmlns:xlink="http://www.w3.org/1999/xlink" x="0px" y="0px"
	 viewBox="0 0 1280 769" style="enable-background:new 0 0 1280 769;" xml:space="preserve">
<style type="text/css">
	.st0{fill:#0000FF;}
	.st1{fill:#BCC6CC;}
</style>
<g>
	<path class="st0" d="M495.71,429.65c0-8.76,0-17.29,0-26.02c0.49,0,0.94,0,1.38,0c5.11,0,10.23,0,15.34,0
		c8.7-0.01,15.42-6.33,15.58-15c0.17-9.34,0.04-18.68,0.04-28.02c0-0.2-0.05-0.4-0.08-0.7c-0.45-0.02-0.86-0.06-1.27-0.06
		c-10.36,0-20.71-0.02-31.07,0c-7.7,0.02-13.84,5-15.28,12.4c-0.23,1.19-0.26,2.44-0.27,3.66c-0.01,30.22-0.01,60.44-0.01,90.66
		c0,0.67,0,1.34,0,2.12c-8.64,0-17.19,0-25.89,0c0-12.96,0-25.91,0-39.04c-8.74,0-17.34,0-26,0c0-8.73,0-17.3,0-25.98
		c8.62,0,17.18,0,25.97,0c0-0.6,0-1.08,0-1.56c0-8.96-0.16-17.93,0.03-26.88c0.37-16.81,8.09-29.23,22.94-37.1
		c5.38-2.85,11.23-4.21,17.32-4.25c10.82-0.07,21.64-0.02,32.46-0.02c0.33,0,0.66,0.04,1.11,0.07c0,8.61,0,17.18,0,25.9
		c8.73,0,17.33,0,25.96,0c0.05,0.44,0.11,0.73,0.11,1.01c-0.01,9.81,0.16,19.62-0.09,29.42c-0.48,18.81-15.24,35.62-33.8,38.68
		c-2.7,0.44-5.46,0.62-8.19,0.68c-4.9,0.11-9.81,0.03-14.71,0.03C496.81,429.65,496.31,429.65,495.71,429.65z"/>
	<g>
		<path d="M568.91,428.13h-5.15v-25.91c0-3.02,0.61-5.71,1.82-8.07c1.21-2.37,2.9-4.19,5.05-5.48c2.16-1.29,4.6-1.93,7.33-1.93
			c2.94,0,5.51,0.69,7.72,2.06c2.21,1.37,3.89,3.25,5.05,5.61c1.16,2.37,1.75,4.93,1.75,7.7c0,1.89-0.36,3.7-1.09,5.43
			c-0.73,1.73-1.7,3.22-2.94,4.47c-1.23,1.25-2.68,2.24-4.34,2.96c-1.66,0.73-3.39,1.09-5.18,1.09c-3,0-5.65-0.66-7.96-1.98v-5.41
			c1.07,0.73,2.23,1.32,3.49,1.78c1.26,0.46,2.46,0.69,3.61,0.69c1.83,0,3.45-0.4,4.85-1.2c1.4-0.8,2.49-1.94,3.25-3.4
			c0.76-1.46,1.15-3.15,1.15-5.06c0-1.45-0.23-2.77-0.69-3.96c-0.46-1.19-1.1-2.22-1.92-3.11c-0.82-0.89-1.81-1.57-2.98-2.04
			c-1.16-0.47-2.42-0.7-3.78-0.7c-2.6,0-4.75,0.99-6.47,2.98c-1.72,1.99-2.58,4.82-2.58,8.51V428.13z"/>
		<path d="M596.6,415.48v-28.15h4.93v3.21h0.11c0.86-1.35,1.9-2.32,3.12-2.92c1.22-0.6,2.72-0.9,4.5-0.9h1.17v4.93h-0.74
			c-5.29,0-7.93,3.56-7.93,10.66v13.16H596.6z"/>
		<path d="M612.04,401.39c0-2.14,0.38-4.09,1.13-5.87c0.75-1.78,1.83-3.34,3.22-4.68c1.39-1.35,2.96-2.37,4.71-3.06
			c1.74-0.7,3.59-1.05,5.54-1.05c1.95,0,3.8,0.35,5.55,1.05c1.75,0.7,3.31,1.7,4.68,3.02c1.36,1.32,2.43,2.89,3.2,4.71
			c0.77,1.82,1.16,3.78,1.16,5.88c0,2.1-0.39,4.07-1.17,5.9c-0.78,1.83-1.84,3.39-3.16,4.67c-1.33,1.28-2.87,2.28-4.65,3.01
			c-1.77,0.73-3.64,1.09-5.61,1.09c-1.93,0-3.78-0.36-5.55-1.07c-1.77-0.72-3.34-1.73-4.71-3.05c-1.36-1.32-2.43-2.87-3.19-4.65
			C612.42,405.49,612.04,403.53,612.04,401.39z M617.42,401.38c0,2.85,0.86,5.19,2.59,7.01c1.73,1.83,3.93,2.74,6.6,2.74
			c2.69,0,4.9-0.91,6.63-2.74c1.73-1.83,2.59-4.16,2.59-7.01c0-2.87-0.86-5.2-2.59-7.01c-1.73-1.81-3.94-2.71-6.63-2.71
			c-2.67,0-4.87,0.9-6.6,2.71C618.28,396.17,617.42,398.51,617.42,401.38z"/>
		<path d="M664.52,387.33v4.93h-4.01c-1.68,0-3.25,0.35-4.72,1.06c-1.47,0.71-2.66,1.77-3.58,3.18c-0.92,1.41-1.37,3.05-1.37,4.9
			c0,2.83,0.96,5.06,2.89,6.7c1.93,1.64,4.19,2.46,6.79,2.46h4.01v4.93h-4.93c-2.27,0-4.5-0.56-6.67-1.68
			c-2.18-1.12-3.97-2.75-5.37-4.91c-1.4-2.16-2.1-4.66-2.1-7.5c0-2.14,0.4-4.08,1.2-5.83c0.8-1.75,1.9-3.24,3.29-4.47
			c1.39-1.23,2.93-2.17,4.62-2.81c1.69-0.64,3.36-0.96,5.03-0.96H664.52z"/>
		<path d="M695.73,395.64l-19.01,10.56l-2.12-4.11l13.92-7.74c-0.99-0.99-1.93-1.69-2.82-2.09c-0.89-0.4-2.09-0.6-3.59-0.6
			c-2.67,0-4.87,0.9-6.6,2.71c-1.73,1.81-2.59,4.14-2.59,7.01c0,2.85,0.86,5.19,2.59,7.01c1.73,1.83,3.93,2.74,6.6,2.74
			c2.86,0,5.02-0.76,6.46-2.29c1.44-1.53,2.44-3.7,2.99-6.51l5.21,0.66c-0.21,2.48-0.96,4.71-2.25,6.69
			c-1.29,1.98-3.02,3.53-5.19,4.67c-2.17,1.14-4.58,1.7-7.21,1.7c-1.93,0-3.78-0.36-5.55-1.07c-1.77-0.72-3.34-1.73-4.71-3.05
			c-1.36-1.32-2.43-2.87-3.19-4.65c-0.76-1.78-1.14-3.75-1.14-5.88c0-2.14,0.38-4.09,1.13-5.87c0.75-1.78,1.83-3.34,3.22-4.68
			c1.39-1.35,2.96-2.37,4.71-3.06c1.74-0.7,3.59-1.05,5.54-1.05c3.2,0,5.94,0.78,8.2,2.33C692.57,390.61,694.38,392.8,695.73,395.64
			z"/>
		<path d="M700.03,415.48v-4.93h14.41c2.23,0,3.34-0.9,3.34-2.69c0-1.13-0.58-1.93-1.73-2.41c-1.15-0.48-3.33-1.2-6.52-2.16
			c-3.19-0.96-5.57-2.05-7.15-3.26c-1.57-1.21-2.36-2.91-2.36-5.08c0-2.5,0.83-4.4,2.5-5.68c1.67-1.29,4.04-1.93,7.11-1.93h12.13
			v4.93h-13.03c-1.24,0-2.09,0.19-2.55,0.56c-0.46,0.37-0.72,1.01-0.77,1.9c0,1.05,1.08,1.94,3.24,2.66
			c2.16,0.73,4.3,1.41,6.44,2.05c2.14,0.64,4.02,1.6,5.64,2.88c1.62,1.28,2.43,3.05,2.43,5.33c0,2.54-0.81,4.48-2.42,5.83
			c-1.61,1.35-3.71,2.02-6.31,2.02H700.03z"/>
		<path d="M726.06,415.48v-4.93h14.41c2.23,0,3.34-0.9,3.34-2.69c0-1.13-0.58-1.93-1.73-2.41c-1.15-0.48-3.33-1.2-6.52-2.16
			c-3.19-0.96-5.57-2.05-7.15-3.26c-1.57-1.21-2.36-2.91-2.36-5.08c0-2.5,0.83-4.4,2.5-5.68s4.04-1.93,7.11-1.93h12.12v4.93h-13.03
			c-1.24,0-2.09,0.19-2.55,0.56c-0.46,0.37-0.72,1.01-0.77,1.9c0,1.05,1.08,1.94,3.24,2.66c2.16,0.73,4.3,1.41,6.44,2.05
			c2.14,0.64,4.02,1.6,5.64,2.88c1.62,1.28,2.43,3.05,2.43,5.33c0,2.54-0.81,4.48-2.42,5.83c-1.61,1.35-3.71,2.02-6.31,2.02H726.06z
			"/>
		<path d="M758.64,415.48h-5.15V384.7c0-2.06,0.42-3.87,1.27-5.44c0.85-1.57,2.02-2.76,3.53-3.59c1.51-0.83,3.23-1.25,5.17-1.25
			h4.32v4.93h-3.64c-3.67,0-5.5,1.75-5.5,5.24v2.75h8.45v4.93h-8.45V415.48z"/>
		<path d="M775.8,415.48h-5.15v-41.06h5.15V415.48z"/>
		<path d="M781.47,401.39c0-2.14,0.38-4.09,1.13-5.87c0.75-1.78,1.83-3.34,3.22-4.68c1.39-1.35,2.96-2.37,4.71-3.06
			c1.75-0.7,3.59-1.05,5.54-1.05c1.95,0,3.8,0.35,5.55,1.05c1.75,0.7,3.31,1.7,4.68,3.02c1.36,1.32,2.43,2.89,3.2,4.71
			c0.77,1.82,1.16,3.78,1.16,5.88c0,2.1-0.39,4.07-1.17,5.9c-0.78,1.83-1.84,3.39-3.16,4.67c-1.32,1.28-2.87,2.28-4.65,3.01
			c-1.77,0.73-3.64,1.09-5.61,1.09c-1.93,0-3.78-0.36-5.55-1.07c-1.77-0.72-3.34-1.73-4.71-3.05c-1.36-1.32-2.43-2.87-3.19-4.65
			C781.85,405.49,781.47,403.53,781.47,401.39z M786.85,401.38c0,2.85,0.86,5.19,2.59,7.01c1.73,1.83,3.93,2.74,6.6,2.74
			c2.69,0,4.9-0.91,6.63-2.74c1.73-1.83,2.59-4.16,2.59-7.01c0-2.87-0.86-5.2-2.59-7.01c-1.73-1.81-3.94-2.71-6.63-2.71
			c-2.67,0-4.87,0.9-6.6,2.71C787.71,396.17,786.85,398.51,786.85,401.38z"/>
		<path d="M846.67,387.33h5.15v19.13c0,1.72-0.44,3.32-1.32,4.8c-0.88,1.48-2.09,2.65-3.64,3.51s-3.26,1.29-5.13,1.29
			c-1.68,0-3.24-0.33-4.68-1c-1.44-0.67-2.62-1.66-3.54-2.98c-0.9,1.3-2.07,2.29-3.53,2.96c-1.46,0.68-3.01,1.02-4.65,1.02
			c-1.87,0-3.58-0.43-5.13-1.3c-1.55-0.87-2.77-2.04-3.65-3.51c-0.88-1.47-1.31-3.06-1.31-4.78v-19.13h5.15v17.95
			c0,1.78,0.46,3.19,1.39,4.25c0.93,1.06,2.14,1.59,3.65,1.59c3.67,0,5.5-2.22,5.5-6.67v-17.12h5.15v17.12
			c0,4.45,1.84,6.67,5.53,6.67c1.51,0,2.72-0.53,3.65-1.59c0.93-1.06,1.39-2.48,1.39-4.25V387.33z"/>
	</g>
	<path class="st1" d="M533.33,321.74c8.89-5.16,16.55-11.85,20.6-21.44c4.01,9.58,11.7,16.21,20.57,21.44
		c-8.82,5.17-16.51,11.83-20.57,21.42C549.88,333.59,542.21,326.91,533.33,321.74z"/>
</g>
</svg>
