<svg id="SvgjsSvg1001" width="150" height="100" xmlns="http://www.w3.org/2000/svg" version="1.1" xmlns:xlink="http://www.w3.org/1999/xlink" xmlns:svgjs="http://svgjs.com/svgjs" class="apexcharts-svg" xmlns:data="ApexChartsNS" transform="translate(0, 0)" style="background: transparent;"><g id="SvgjsG1003" class="apexcharts-inner apexcharts-graphical" transform="translate(0, 0)"><defs id="SvgjsDefs1002"><linearGradient id="SvgjsLinearGradient1006" x1="0" y1="0" x2="0" y2="1"><stop id="SvgjsStop1007" stop-opacity="0.4" stop-color="rgba(216,227,240,0.4)" offset="0"></stop><stop id="SvgjsStop1008" stop-opacity="0.5" stop-color="rgba(190,209,230,0.5)" offset="1"></stop><stop id="SvgjsStop1009" stop-opacity="0.5" stop-color="rgba(190,209,230,0.5)" offset="1"></stop></linearGradient><clipPath id="gridRectMaskbfyhih9s"><rect id="SvgjsRect1011" width="154" height="100" x="-2" y="0" rx="0" ry="0" opacity="1" stroke-width="0" stroke="none" stroke-dasharray="0" fill="#fff"></rect></clipPath><clipPath id="gridRectMarkerMaskbfyhih9s"><rect id="SvgjsRect1012" width="154" height="104" x="-2" y="-2" rx="0" ry="0" opacity="1" stroke-width="0" stroke="none" stroke-dasharray="0" fill="#fff"></rect></clipPath></defs><rect id="SvgjsRect1010" width="0" height="100" x="-500" y="0" rx="0" ry="0" opacity="1" stroke-width="0" stroke-dasharray="3" fill="url(#SvgjsLinearGradient1006)" class="apexcharts-xcrosshairs" y2="100" filter="none" fill-opacity="0.9" x1="-500" x2="-500"></rect><g id="SvgjsG1028" class="apexcharts-yaxis apexcharts-xaxis-inversed" rel="0"><g id="SvgjsG1029" class="apexcharts-yaxis-texts-g apexcharts-xaxis-inversed-texts-g" transform="translate(0, 0)"></g><g id="SvgjsG1030" class="apexcharts-yaxis-title apexcharts-xaxis-title-inversed" transform="translate(0, 0)"><text id="SvgjsText1031" font-family="Helvetica, Arial, sans-serif" x="-25" y="50" text-anchor="middle" dominant-baseline="auto" font-size="11px" font-weight="900" fill="#373d3f" class="apexcharts-text apexcharts-yaxis-title-text " style="font-family: Helvetica, Arial, sans-serif;" transform="rotate(-90 0 0)" svgjs:data="{&quot;leading&quot;:&quot;1.3&quot;}"></text></g></g><g id="SvgjsG1026" class="apexcharts-xaxis apexcharts-yaxis-inversed"><g id="SvgjsG1027" class="apexcharts-xaxis-texts-g" transform="translate(0, -8)"></g></g><g id="SvgjsG1032" class="apexcharts-grid"><g id="SvgjsG1033" class="apexcharts-gridlines-horizontal" style="display: none;"><line id="SvgjsLine1035" x1="0" y1="0" x2="150" y2="0" stroke="#e0e0e0" stroke-dasharray="0" class="apexcharts-gridline"></line><line id="SvgjsLine1036" x1="0" y1="25" x2="150" y2="25" stroke="#e0e0e0" stroke-dasharray="0" class="apexcharts-gridline"></line><line id="SvgjsLine1037" x1="0" y1="50" x2="150" y2="50" stroke="#e0e0e0" stroke-dasharray="0" class="apexcharts-gridline"></line><line id="SvgjsLine1038" x1="0" y1="75" x2="150" y2="75" stroke="#e0e0e0" stroke-dasharray="0" class="apexcharts-gridline"></line><line id="SvgjsLine1039" x1="0" y1="100" x2="150" y2="100" stroke="#e0e0e0" stroke-dasharray="0" class="apexcharts-gridline"></line></g><g id="SvgjsG1034" class="apexcharts-gridlines-vertical" style="display: none;"></g><line id="SvgjsLine1041" x1="0" y1="100" x2="150" y2="100" stroke="transparent" stroke-dasharray="0"></line><line id="SvgjsLine1040" x1="0" y1="1" x2="0" y2="100" stroke="transparent" stroke-dasharray="0"></line></g><g id="SvgjsG1013" class="apexcharts-bar-series apexcharts-plot-series"><g id="SvgjsG1014" class="apexcharts-series" rel="1" seriesName="MarinexSprite" data:realIndex="0"><path id="SvgjsPath1016" d="M0.1 3.125L75.1 3.125L75.1 12.5L75.1 12.5L0.1 12.5L0.1 12.5C0.1 12.5 0.1 3.125 0.1 3.125 " fill="rgba(0,143,251,1)" fill-opacity="1" stroke-opacity="1" stroke-linecap="square" stroke-width="0" stroke-dasharray="0" class="apexcharts-bar-area" index="0" clip-path="url(#gridRectMaskbfyhih9s)" pathTo="M 0.1 3.125L 75.1 3.125L 75.1 12.5L 75.1 12.5L 0.1 12.5L 0.1 12.5z" pathFrom="M 0.1 3.125L 0.1 3.125L 0.1 12.5L 0.1 12.5L 0.1 12.5L 0.1 3.125" cy="28.125" cx="75.1" j="0" val="30" barHeight="9.375" barWidth="75"></path><path id="SvgjsPath1017" d="M0.1 28.125L137.6 28.125L137.6 37.5L137.6 37.5L0.1 37.5L0.1 37.5C0.1 37.5 0.1 28.125 0.1 28.125 " fill="rgba(0,143,251,1)" fill-opacity="1" stroke-opacity="1" stroke-linecap="square" stroke-width="0" stroke-dasharray="0" class="apexcharts-bar-area" index="0" clip-path="url(#gridRectMaskbfyhih9s)" pathTo="M 0.1 28.125L 137.6 28.125L 137.6 37.5L 137.6 37.5L 0.1 37.5L 0.1 37.5z" pathFrom="M 0.1 28.125L 0.1 28.125L 0.1 37.5L 0.1 37.5L 0.1 37.5L 0.1 28.125" cy="53.125" cx="137.6" j="1" val="55" barHeight="9.375" barWidth="137.5"></path><path id="SvgjsPath1018" d="M0.1 53.125L102.6 53.125L102.6 62.5L102.6 62.5L0.1 62.5L0.1 62.5C0.1 62.5 0.1 53.125 0.1 53.125 " fill="rgba(0,143,251,1)" fill-opacity="1" stroke-opacity="1" stroke-linecap="square" stroke-width="0" stroke-dasharray="0" class="apexcharts-bar-area" index="0" clip-path="url(#gridRectMaskbfyhih9s)" pathTo="M 0.1 53.125L 102.6 53.125L 102.6 62.5L 102.6 62.5L 0.1 62.5L 0.1 62.5z" pathFrom="M 0.1 53.125L 0.1 53.125L 0.1 62.5L 0.1 62.5L 0.1 62.5L 0.1 53.125" cy="78.125" cx="102.6" j="2" val="41" barHeight="9.375" barWidth="102.5"></path><path id="SvgjsPath1019" d="M0.1 78.125L92.6 78.125L92.6 87.5L92.6 87.5L0.1 87.5L0.1 87.5C0.1 87.5 0.1 78.125 0.1 78.125 " fill="rgba(0,143,251,1)" fill-opacity="1" stroke-opacity="1" stroke-linecap="square" stroke-width="0" stroke-dasharray="0" class="apexcharts-bar-area" index="0" clip-path="url(#gridRectMaskbfyhih9s)" pathTo="M 0.1 78.125L 92.6 78.125L 92.6 87.5L 92.6 87.5L 0.1 87.5L 0.1 87.5z" pathFrom="M 0.1 78.125L 0.1 78.125L 0.1 87.5L 0.1 87.5L 0.1 87.5L 0.1 78.125" cy="103.125" cx="92.6" j="3" val="37" barHeight="9.375" barWidth="92.5"></path></g><g id="SvgjsG1020" class="apexcharts-series" rel="2" seriesName="StrikingxCalf" data:realIndex="1"><path id="SvgjsPath1022" d="M0.1 12.5L132.6 12.5L132.6 21.875L132.6 21.875L0.1 21.875L0.1 21.875C0.1 21.875 0.1 12.5 0.1 12.5 " fill="rgba(0,227,150,1)" fill-opacity="1" stroke-opacity="1" stroke-linecap="square" stroke-width="0" stroke-dasharray="0" class="apexcharts-bar-area" index="1" clip-path="url(#gridRectMaskbfyhih9s)" pathTo="M 0.1 12.5L 132.6 12.5L 132.6 21.875L 132.6 21.875L 0.1 21.875L 0.1 21.875z" pathFrom="M 0.1 12.5L 0.1 12.5L 0.1 21.875L 0.1 21.875L 0.1 21.875L 0.1 12.5" cy="37.5" cx="132.6" j="0" val="53" barHeight="9.375" barWidth="132.5"></path><path id="SvgjsPath1023" d="M0.1 37.5L80.1 37.5L80.1 46.875L80.1 46.875L0.1 46.875L0.1 46.875C0.1 46.875 0.1 37.5 0.1 37.5 " fill="rgba(0,227,150,1)" fill-opacity="1" stroke-opacity="1" stroke-linecap="square" stroke-width="0" stroke-dasharray="0" class="apexcharts-bar-area" index="1" clip-path="url(#gridRectMaskbfyhih9s)" pathTo="M 0.1 37.5L 80.1 37.5L 80.1 46.875L 80.1 46.875L 0.1 46.875L 0.1 46.875z" pathFrom="M 0.1 37.5L 0.1 37.5L 0.1 46.875L 0.1 46.875L 0.1 46.875L 0.1 37.5" cy="62.5" cx="80.1" j="1" val="32" barHeight="9.375" barWidth="80"></path><path id="SvgjsPath1024" d="M0.1 62.5L82.6 62.5L82.6 71.875L82.6 71.875L0.1 71.875L0.1 71.875C0.1 71.875 0.1 62.5 0.1 62.5 " fill="rgba(0,227,150,1)" fill-opacity="1" stroke-opacity="1" stroke-linecap="square" stroke-width="0" stroke-dasharray="0" class="apexcharts-bar-area" index="1" clip-path="url(#gridRectMaskbfyhih9s)" pathTo="M 0.1 62.5L 82.6 62.5L 82.6 71.875L 82.6 71.875L 0.1 71.875L 0.1 71.875z" pathFrom="M 0.1 62.5L 0.1 62.5L 0.1 71.875L 0.1 71.875L 0.1 71.875L 0.1 62.5" cy="87.5" cx="82.6" j="2" val="33" barHeight="9.375" barWidth="82.5"></path><path id="SvgjsPath1025" d="M0.1 87.5L22.6 87.5L22.6 96.875L22.6 96.875L0.1 96.875L0.1 96.875C0.1 96.875 0.1 87.5 0.1 87.5 " fill="rgba(0,227,150,1)" fill-opacity="1" stroke-opacity="1" stroke-linecap="square" stroke-width="0" stroke-dasharray="0" class="apexcharts-bar-area" index="1" clip-path="url(#gridRectMaskbfyhih9s)" pathTo="M 0.1 87.5L 22.6 87.5L 22.6 96.875L 22.6 96.875L 0.1 96.875L 0.1 96.875z" pathFrom="M 0.1 87.5L 0.1 87.5L 0.1 96.875L 0.1 96.875L 0.1 96.875L 0.1 87.5" cy="112.5" cx="22.6" j="3" val="9" barHeight="9.375" barWidth="22.5"></path></g><g id="SvgjsG1015" class="apexcharts-datalabels" data:realIndex="0"></g><g id="SvgjsG1021" class="apexcharts-datalabels" data:realIndex="1"></g></g><line id="SvgjsLine1042" x1="0" y1="-100" x2="150" y2="-100" stroke="#b6b6b6" stroke-dasharray="0" stroke-width="1" class="apexcharts-ycrosshairs" y="-100"></line><line id="SvgjsLine1043" x1="0" y1="0" x2="150" y2="0" stroke-dasharray="0" stroke-width="0" class="apexcharts-ycrosshairs-hidden"></line><g id="SvgjsG1044" class="apexcharts-yaxis-annotations"></g><g id="SvgjsG1045" class="apexcharts-xaxis-annotations"></g><g id="SvgjsG1046" class="apexcharts-point-annotations"></g></g><g id="SvgjsG1004" class="apexcharts-annotations"></g></svg>