<svg id="SvgjsSvg1001" width="150" height="100" xmlns="http://www.w3.org/2000/svg" version="1.1" xmlns:xlink="http://www.w3.org/1999/xlink" xmlns:svgjs="http://svgjs.com/svgjs" class="apexcharts-svg" xmlns:data="ApexChartsNS" transform="translate(0, 0)" style="background: transparent;"><g id="SvgjsG1003" class="apexcharts-inner apexcharts-graphical" transform="translate(12, 30)"><defs id="SvgjsDefs1002"><clipPath id="gridRectMaskqmng8mm3"><rect id="SvgjsRect1007" width="134" height="37" x="-3" y="-1" rx="0" ry="0" opacity="1" stroke-width="0" stroke="none" stroke-dasharray="0" fill="#fff"></rect></clipPath><clipPath id="gridRectMarkerMaskqmng8mm3"><rect id="SvgjsRect1008" width="132" height="39" x="-2" y="-2" rx="0" ry="0" opacity="1" stroke-width="0" stroke="none" stroke-dasharray="0" fill="#fff"></rect></clipPath></defs><g id="SvgjsG1056" class="apexcharts-grid"><g id="SvgjsG1057" class="apexcharts-gridlines-horizontal" style="display: none;"><line id="SvgjsLine1059" x1="0" y1="0" x2="128" y2="0" stroke="#e0e0e0" stroke-dasharray="0" class="apexcharts-gridline"></line><line id="SvgjsLine1060" x1="0" y1="8.75" x2="128" y2="8.75" stroke="#e0e0e0" stroke-dasharray="0" class="apexcharts-gridline"></line><line id="SvgjsLine1061" x1="0" y1="17.5" x2="128" y2="17.5" stroke="#e0e0e0" stroke-dasharray="0" class="apexcharts-gridline"></line><line id="SvgjsLine1062" x1="0" y1="26.25" x2="128" y2="26.25" stroke="#e0e0e0" stroke-dasharray="0" class="apexcharts-gridline"></line><line id="SvgjsLine1063" x1="0" y1="35" x2="128" y2="35" stroke="#e0e0e0" stroke-dasharray="0" class="apexcharts-gridline"></line></g><g id="SvgjsG1058" class="apexcharts-gridlines-vertical" style="display: none;"></g><line id="SvgjsLine1065" x1="0" y1="35" x2="128" y2="35" stroke="transparent" stroke-dasharray="0"></line><line id="SvgjsLine1064" x1="0" y1="1" x2="0" y2="35" stroke="transparent" stroke-dasharray="0"></line></g><g id="SvgjsG1009" class="apexcharts-radar-series apexcharts-plot-series" transform="translate(64, 17.5)"><polygon id="SvgjsPolygon1051" points="0,-35.666666666666664 30.888239401644974,-17.833333333333336 30.888239401644977,17.833333333333325 4.3679069169588925e-15,35.666666666666664 -30.88823940164497,17.833333333333346 -30.88823940164499,-17.833333333333307 " fill="transparent" stroke="#888" stroke-width="1"></polygon><polygon id="SvgjsPolygon1052" points="0,-26.75 23.166179551233732,-13.375000000000004 23.166179551233736,13.374999999999995 3.27593018771917e-15,26.75 -23.16617955123373,13.375000000000012 -23.166179551233743,-13.374999999999982 " fill="transparent" stroke="#888" stroke-width="1"></polygon><polygon id="SvgjsPolygon1053" points="0,-17.833333333333332 15.444119700822487,-8.916666666666668 15.444119700822489,8.916666666666663 2.1839534584794462e-15,17.833333333333332 -15.444119700822485,8.916666666666673 -15.444119700822496,-8.916666666666654 " fill="transparent" stroke="#888" stroke-width="1"></polygon><polygon id="SvgjsPolygon1054" points="0,-8.916666666666666 7.722059850411243,-4.458333333333334 7.722059850411244,4.458333333333331 1.0919767292397231e-15,8.916666666666666 -7.7220598504112425,4.458333333333337 -7.722059850411248,-4.458333333333327 " fill="transparent" stroke="#888" stroke-width="1"></polygon><polygon id="SvgjsPolygon1055" points="0,0 0,0 0,0 0,0 0,0 0,0 " fill="transparent" stroke="#888" stroke-width="1"></polygon><line id="SvgjsLine1045" x1="0" y1="-35.666666666666664" x2="0" y2="0" stroke="transparent" stroke-dasharray="0"></line><line id="SvgjsLine1046" x1="30.888239401644974" y1="-17.833333333333336" x2="0" y2="0" stroke="transparent" stroke-dasharray="0"></line><line id="SvgjsLine1047" x1="30.888239401644977" y1="17.833333333333325" x2="0" y2="0" stroke="transparent" stroke-dasharray="0"></line><line id="SvgjsLine1048" x1="4.3679069169588925e-15" y1="35.666666666666664" x2="0" y2="0" stroke="transparent" stroke-dasharray="0"></line><line id="SvgjsLine1049" x1="-30.88823940164497" y1="17.833333333333346" x2="0" y2="0" stroke="transparent" stroke-dasharray="0"></line><line id="SvgjsLine1050" x1="-30.88823940164499" y1="-17.833333333333307" x2="0" y2="0" stroke="transparent" stroke-dasharray="0"></line><g id="SvgjsG1010" class="apexcharts-yaxis"></g><g id="SvgjsG1011" class="apexcharts-series" data:longestSeries="true" seriesName="Seriesx1" rel="1" data:realIndex="0"><path id="SvgjsPath1014" d="M0 -23.777777777777775C0 -23.777777777777775 0 -23.777777777777775 0 -23.777777777777775C0 -23.777777777777775 12.870099750685407 -7.430555555555557 12.870099750685407 -7.430555555555557C12.870099750685407 -7.430555555555557 7.722059850411244 4.458333333333331 7.722059850411244 4.458333333333331C7.722059850411244 4.458333333333331 1.455968972319631e-15 11.888888888888888 1.455968972319631e-15 11.888888888888888C1.455968972319631e-15 11.888888888888888 -25.74019950137081 14.861111111111123 -25.74019950137081 14.861111111111123C-25.74019950137081 14.861111111111123 -5.148039900274165 -2.972222222222218 -5.148039900274165 -2.972222222222218C-5.148039900274165 -2.972222222222218 0 -23.777777777777775 0 -23.777777777777775 " fill="none" fill-opacity="1" stroke="#008ffb" stroke-opacity="1" stroke-linecap="butt" stroke-width="2" stroke-dasharray="0" class="apexcharts-radar" index="0" pathTo="M 0 -23.777777777777775L 0 -23.777777777777775L 12.870099750685407 -7.430555555555557L 7.722059850411244 4.458333333333331L 1.455968972319631e-15 11.888888888888888L -25.74019950137081 14.861111111111123L -5.148039900274165 -2.972222222222218Z" pathFrom="M 0 0"></path><path id="SvgjsPath1015" d="M0 -23.777777777777775C0 -23.777777777777775 0 -23.777777777777775 0 -23.777777777777775C0 -23.777777777777775 12.870099750685407 -7.430555555555557 12.870099750685407 -7.430555555555557C12.870099750685407 -7.430555555555557 7.722059850411244 4.458333333333331 7.722059850411244 4.458333333333331C7.722059850411244 4.458333333333331 1.455968972319631e-15 11.888888888888888 1.455968972319631e-15 11.888888888888888C1.455968972319631e-15 11.888888888888888 -25.74019950137081 14.861111111111123 -25.74019950137081 14.861111111111123C-25.74019950137081 14.861111111111123 -5.148039900274165 -2.972222222222218 -5.148039900274165 -2.972222222222218C-5.148039900274165 -2.972222222222218 0 -23.777777777777775 0 -23.777777777777775 " fill="rgba(0,143,251,1)" fill-opacity="1" stroke-opacity="1" stroke-linecap="butt" stroke-width="0" stroke-dasharray="0" class="apexcharts-radar" index="0" pathTo="M 0 -23.777777777777775L 0 -23.777777777777775L 12.870099750685407 -7.430555555555557L 7.722059850411244 4.458333333333331L 1.455968972319631e-15 11.888888888888888L -25.74019950137081 14.861111111111123L -5.148039900274165 -2.972222222222218Z" pathFrom="M 0 0"></path><g id="SvgjsG1012" class="apexcharts-series-markers-wrap"><g id="SvgjsG1017" class="apexcharts-series-markers"><circle id="SvgjsCircle1016" r="0" cx="0" cy="-23.777777777777775" class="apexcharts-marker" stroke="#ffffff" fill="#008ffb" fill-opacity="1" stroke-width="1" stroke-opacity="1" rel="0" j="0" index="0" default-marker-size="0"></circle></g><g id="SvgjsG1019" class="apexcharts-series-markers"><circle id="SvgjsCircle1018" r="0" cx="12.870099750685407" cy="-7.430555555555557" class="apexcharts-marker" stroke="#ffffff" fill="#008ffb" fill-opacity="1" stroke-width="1" stroke-opacity="1" rel="1" j="1" index="0" default-marker-size="0"></circle></g><g id="SvgjsG1021" class="apexcharts-series-markers"><circle id="SvgjsCircle1020" r="0" cx="7.722059850411244" cy="4.458333333333331" class="apexcharts-marker" stroke="#ffffff" fill="#008ffb" fill-opacity="1" stroke-width="1" stroke-opacity="1" rel="2" j="2" index="0" default-marker-size="0"></circle></g><g id="SvgjsG1023" class="apexcharts-series-markers"><circle id="SvgjsCircle1022" r="0" cx="1.455968972319631e-15" cy="11.888888888888888" class="apexcharts-marker" stroke="#ffffff" fill="#008ffb" fill-opacity="1" stroke-width="1" stroke-opacity="1" rel="3" j="3" index="0" default-marker-size="0"></circle></g><g id="SvgjsG1025" class="apexcharts-series-markers"><circle id="SvgjsCircle1024" r="0" cx="-25.74019950137081" cy="14.861111111111123" class="apexcharts-marker" stroke="#ffffff" fill="#008ffb" fill-opacity="1" stroke-width="1" stroke-opacity="1" rel="4" j="4" index="0" default-marker-size="0"></circle></g><g id="SvgjsG1027" class="apexcharts-series-markers"><circle id="SvgjsCircle1026" r="0" cx="-5.148039900274165" cy="-2.972222222222218" class="apexcharts-marker" stroke="#ffffff" fill="#008ffb" fill-opacity="1" stroke-width="1" stroke-opacity="1" rel="5" j="5" index="0" default-marker-size="0"></circle></g><g class="apexcharts-series-markers"><circle id="SvgjsCircle1071" r="0" cx="0" cy="0" class="apexcharts-marker wiadr98tl" stroke="#ffffff" fill="#008ffb" fill-opacity="1" stroke-width="1" stroke-opacity="1" default-marker-size="0"></circle></g></g></g><g id="SvgjsG1028" class="apexcharts-series" data:longestSeries="true" seriesName="Seriesx2" rel="2" data:realIndex="1"><path id="SvgjsPath1031" d="M0 -14.86111111111111C0 -14.86111111111111 0 -14.86111111111111 0 -14.86111111111111C0 -14.86111111111111 7.722059850411243 -4.458333333333334 7.722059850411243 -4.458333333333334C7.722059850411243 -4.458333333333334 10.296079800548325 5.944444444444441 10.296079800548325 5.944444444444441C10.296079800548325 5.944444444444441 3.639922430799077e-15 29.72222222222222 3.639922430799077e-15 29.72222222222222C3.639922430799077e-15 29.72222222222222 -5.148039900274162 2.9722222222222245 -5.148039900274162 2.9722222222222245C-5.148039900274162 2.9722222222222245 -20.59215960109666 -11.888888888888872 -20.59215960109666 -11.888888888888872C-20.59215960109666 -11.888888888888872 0 -14.86111111111111 0 -14.86111111111111 " fill="none" fill-opacity="1" stroke="#00e396" stroke-opacity="1" stroke-linecap="butt" stroke-width="2" stroke-dasharray="0" class="apexcharts-radar" index="1" pathTo="M 0 -14.86111111111111L 0 -14.86111111111111L 7.722059850411243 -4.458333333333334L 10.296079800548325 5.944444444444441L 3.639922430799077e-15 29.72222222222222L -5.148039900274162 2.9722222222222245L -20.59215960109666 -11.888888888888872Z" pathFrom="M 0 0"></path><path id="SvgjsPath1032" d="M0 -14.86111111111111C0 -14.86111111111111 0 -14.86111111111111 0 -14.86111111111111C0 -14.86111111111111 7.722059850411243 -4.458333333333334 7.722059850411243 -4.458333333333334C7.722059850411243 -4.458333333333334 10.296079800548325 5.944444444444441 10.296079800548325 5.944444444444441C10.296079800548325 5.944444444444441 3.639922430799077e-15 29.72222222222222 3.639922430799077e-15 29.72222222222222C3.639922430799077e-15 29.72222222222222 -5.148039900274162 2.9722222222222245 -5.148039900274162 2.9722222222222245C-5.148039900274162 2.9722222222222245 -20.59215960109666 -11.888888888888872 -20.59215960109666 -11.888888888888872C-20.59215960109666 -11.888888888888872 0 -14.86111111111111 0 -14.86111111111111 " fill="rgba(0,227,150,1)" fill-opacity="1" stroke-opacity="1" stroke-linecap="butt" stroke-width="0" stroke-dasharray="0" class="apexcharts-radar" index="1" pathTo="M 0 -14.86111111111111L 0 -14.86111111111111L 7.722059850411243 -4.458333333333334L 10.296079800548325 5.944444444444441L 3.639922430799077e-15 29.72222222222222L -5.148039900274162 2.9722222222222245L -20.59215960109666 -11.888888888888872Z" pathFrom="M 0 0"></path><g id="SvgjsG1029" class="apexcharts-series-markers-wrap"><g id="SvgjsG1034" class="apexcharts-series-markers"><circle id="SvgjsCircle1033" r="0" cx="0" cy="-14.86111111111111" class="apexcharts-marker" stroke="#ffffff" fill="#00e396" fill-opacity="1" stroke-width="1" stroke-opacity="1" rel="0" j="0" index="1" default-marker-size="0"></circle></g><g id="SvgjsG1036" class="apexcharts-series-markers"><circle id="SvgjsCircle1035" r="0" cx="7.722059850411243" cy="-4.458333333333334" class="apexcharts-marker" stroke="#ffffff" fill="#00e396" fill-opacity="1" stroke-width="1" stroke-opacity="1" rel="1" j="1" index="1" default-marker-size="0"></circle></g><g id="SvgjsG1038" class="apexcharts-series-markers"><circle id="SvgjsCircle1037" r="0" cx="10.296079800548325" cy="5.944444444444441" class="apexcharts-marker" stroke="#ffffff" fill="#00e396" fill-opacity="1" stroke-width="1" stroke-opacity="1" rel="2" j="2" index="1" default-marker-size="0"></circle></g><g id="SvgjsG1040" class="apexcharts-series-markers"><circle id="SvgjsCircle1039" r="0" cx="3.639922430799077e-15" cy="29.72222222222222" class="apexcharts-marker" stroke="#ffffff" fill="#00e396" fill-opacity="1" stroke-width="1" stroke-opacity="1" rel="3" j="3" index="1" default-marker-size="0"></circle></g><g id="SvgjsG1042" class="apexcharts-series-markers"><circle id="SvgjsCircle1041" r="0" cx="-5.148039900274162" cy="2.9722222222222245" class="apexcharts-marker" stroke="#ffffff" fill="#00e396" fill-opacity="1" stroke-width="1" stroke-opacity="1" rel="4" j="4" index="1" default-marker-size="0"></circle></g><g id="SvgjsG1044" class="apexcharts-series-markers"><circle id="SvgjsCircle1043" r="0" cx="-20.59215960109666" cy="-11.888888888888872" class="apexcharts-marker" stroke="#ffffff" fill="#00e396" fill-opacity="1" stroke-width="1" stroke-opacity="1" rel="5" j="5" index="1" default-marker-size="0"></circle></g><g class="apexcharts-series-markers"><circle id="SvgjsCircle1072" r="0" cx="0" cy="0" class="apexcharts-marker wr8zw7zwp" stroke="#ffffff" fill="#00e396" fill-opacity="1" stroke-width="1" stroke-opacity="1" default-marker-size="0"></circle></g></g></g><g id="SvgjsG1013" class="apexcharts-datalabels" data:realIndex="0"></g><g id="SvgjsG1030" class="apexcharts-datalabels" data:realIndex="1"></g></g><line id="SvgjsLine1066" x1="0" y1="-100" x2="128" y2="-100" stroke="#b6b6b6" stroke-dasharray="0" stroke-width="1" class="apexcharts-ycrosshairs" y="-100"></line><line id="SvgjsLine1067" x1="0" y1="0" x2="128" y2="0" stroke-dasharray="0" stroke-width="0" class="apexcharts-ycrosshairs-hidden"></line><g id="SvgjsG1068" class="apexcharts-yaxis-annotations"></g><g id="SvgjsG1069" class="apexcharts-xaxis-annotations"></g><g id="SvgjsG1070" class="apexcharts-point-annotations"></g></g><g id="SvgjsG1004" class="apexcharts-annotations"></g></svg>