<svg id="SvgjsSvg1001" width="150" height="100" xmlns="http://www.w3.org/2000/svg" version="1.1" xmlns:xlink="http://www.w3.org/1999/xlink" xmlns:svgjs="http://svgjs.com/svgjs" class="apexcharts-svg" xmlns:data="ApexChartsNS" transform="translate(0, 0)" style="background: transparent;"><g id="SvgjsG1003" class="apexcharts-inner apexcharts-graphical" transform="translate(0, 0)"><defs id="SvgjsDefs1002"><linearGradient id="SvgjsLinearGradient1006" x1="0" y1="0" x2="0" y2="1"><stop id="SvgjsStop1007" stop-opacity="0.4" stop-color="rgba(216,227,240,0.4)" offset="0"></stop><stop id="SvgjsStop1008" stop-opacity="0.5" stop-color="rgba(190,209,230,0.5)" offset="1"></stop><stop id="SvgjsStop1009" stop-opacity="0.5" stop-color="rgba(190,209,230,0.5)" offset="1"></stop></linearGradient><clipPath id="gridRectMaskalumon0b"><rect id="SvgjsRect1011" width="154" height="100" x="-2" y="0" rx="0" ry="0" opacity="1" stroke-width="0" stroke="none" stroke-dasharray="0" fill="#fff"></rect></clipPath><clipPath id="gridRectMarkerMaskalumon0b"><rect id="SvgjsRect1012" width="154" height="104" x="-2" y="-2" rx="0" ry="0" opacity="1" stroke-width="0" stroke="none" stroke-dasharray="0" fill="#fff"></rect></clipPath></defs><rect id="SvgjsRect1010" width="0" height="100" x="-500" y="0" rx="0" ry="0" opacity="1" stroke-width="0" stroke-dasharray="3" fill="url(#SvgjsLinearGradient1006)" class="apexcharts-xcrosshairs" y2="100" filter="none" fill-opacity="0.9" x1="-500" x2="-500"></rect><g id="SvgjsG1028" class="apexcharts-yaxis apexcharts-xaxis-inversed" rel="0"><g id="SvgjsG1029" class="apexcharts-yaxis-texts-g apexcharts-xaxis-inversed-texts-g" transform="translate(0, 0)"></g><g id="SvgjsG1030" class="apexcharts-yaxis-title apexcharts-xaxis-title-inversed" transform="translate(0, 0)"><text id="SvgjsText1031" font-family="Helvetica, Arial, sans-serif" x="-25" y="50" text-anchor="middle" dominant-baseline="auto" font-size="11px" font-weight="900" fill="#373d3f" class="apexcharts-text apexcharts-yaxis-title-text " style="font-family: Helvetica, Arial, sans-serif;" transform="rotate(-90 0 0)" svgjs:data="{&quot;leading&quot;:&quot;1.3&quot;}"></text></g></g><g id="SvgjsG1026" class="apexcharts-xaxis apexcharts-yaxis-inversed"><g id="SvgjsG1027" class="apexcharts-xaxis-texts-g" transform="translate(0, -8)"></g></g><g id="SvgjsG1032" class="apexcharts-grid"><g id="SvgjsG1033" class="apexcharts-gridlines-horizontal" style="display: none;"><line id="SvgjsLine1035" x1="0" y1="0" x2="150" y2="0" stroke="#e0e0e0" stroke-dasharray="0" class="apexcharts-gridline"></line><line id="SvgjsLine1036" x1="0" y1="25" x2="150" y2="25" stroke="#e0e0e0" stroke-dasharray="0" class="apexcharts-gridline"></line><line id="SvgjsLine1037" x1="0" y1="50" x2="150" y2="50" stroke="#e0e0e0" stroke-dasharray="0" class="apexcharts-gridline"></line><line id="SvgjsLine1038" x1="0" y1="75" x2="150" y2="75" stroke="#e0e0e0" stroke-dasharray="0" class="apexcharts-gridline"></line><line id="SvgjsLine1039" x1="0" y1="100" x2="150" y2="100" stroke="#e0e0e0" stroke-dasharray="0" class="apexcharts-gridline"></line></g><g id="SvgjsG1034" class="apexcharts-gridlines-vertical" style="display: none;"></g><line id="SvgjsLine1041" x1="0" y1="100" x2="150" y2="100" stroke="transparent" stroke-dasharray="0"></line><line id="SvgjsLine1040" x1="0" y1="1" x2="0" y2="100" stroke="transparent" stroke-dasharray="0"></line></g><g id="SvgjsG1013" class="apexcharts-bar-series apexcharts-plot-series"><g id="SvgjsG1014" class="apexcharts-series" seriesName="MarinexSprite" rel="1" data:realIndex="0"><path id="SvgjsPath1016" d="M0.1 5L6.1 5L6.1 20L6.1 20L0.1 20L0.1 20C0.1 20 0.1 5 0.1 5 " fill="rgba(0,143,251,1)" fill-opacity="1" stroke-opacity="1" stroke-linecap="square" stroke-width="0" stroke-dasharray="0" class="apexcharts-bar-area" index="0" clip-path="url(#gridRectMaskalumon0b)" pathTo="M 0.1 5L 6.1 5L 6.1 20L 6.1 20L 0.1 20L 0.1 20z" pathFrom="M 0.1 5L 0.1 5L 0.1 20L 0.1 20L 0.1 20L 0.1 5" cy="30" cx="6.1" j="0" val="4" barHeight="15" barWidth="6"></path><path id="SvgjsPath1017" d="M0.1 30L82.6 30L82.6 45L82.6 45L0.1 45L0.1 45C0.1 45 0.1 30 0.1 30 " fill="rgba(0,143,251,1)" fill-opacity="1" stroke-opacity="1" stroke-linecap="square" stroke-width="0" stroke-dasharray="0" class="apexcharts-bar-area" index="0" clip-path="url(#gridRectMaskalumon0b)" pathTo="M 0.1 30L 82.6 30L 82.6 45L 82.6 45L 0.1 45L 0.1 45z" pathFrom="M 0.1 30L 0.1 30L 0.1 45L 0.1 45L 0.1 45L 0.1 30" cy="55" cx="82.6" j="1" val="55" barHeight="15" barWidth="82.5"></path><path id="SvgjsPath1018" d="M0.1 55L61.6 55L61.6 70L61.6 70L0.1 70L0.1 70C0.1 70 0.1 55 0.1 55 " fill="rgba(0,143,251,1)" fill-opacity="1" stroke-opacity="1" stroke-linecap="square" stroke-width="0" stroke-dasharray="0" class="apexcharts-bar-area" index="0" clip-path="url(#gridRectMaskalumon0b)" pathTo="M 0.1 55L 61.6 55L 61.6 70L 61.6 70L 0.1 70L 0.1 70z" pathFrom="M 0.1 55L 0.1 55L 0.1 70L 0.1 70L 0.1 70L 0.1 55" cy="80" cx="61.6" j="2" val="41" barHeight="15" barWidth="61.5"></path><path id="SvgjsPath1019" d="M0.1 80L55.6 80L55.6 95L55.6 95L0.1 95L0.1 95C0.1 95 0.1 80 0.1 80 " fill="rgba(0,143,251,1)" fill-opacity="1" stroke-opacity="1" stroke-linecap="square" stroke-width="0" stroke-dasharray="0" class="apexcharts-bar-area" index="0" clip-path="url(#gridRectMaskalumon0b)" pathTo="M 0.1 80L 55.6 80L 55.6 95L 55.6 95L 0.1 95L 0.1 95z" pathFrom="M 0.1 80L 0.1 80L 0.1 95L 0.1 95L 0.1 95L 0.1 80" cy="105" cx="55.6" j="3" val="37" barHeight="15" barWidth="55.5"></path></g><g id="SvgjsG1020" class="apexcharts-series" seriesName="StrikingxCalf" rel="2" data:realIndex="1"><path id="SvgjsPath1022" d="M6.1 5L85.6 5L85.6 20L85.6 20L6.1 20L6.1 20C6.1 20 6.1 5 6.1 5 " fill="rgba(0,227,150,1)" fill-opacity="1" stroke-opacity="1" stroke-linecap="square" stroke-width="0" stroke-dasharray="0" class="apexcharts-bar-area" index="1" clip-path="url(#gridRectMaskalumon0b)" pathTo="M 6.1 5L 85.6 5L 85.6 20L 85.6 20L 6.1 20L 6.1 20z" pathFrom="M 6.1 5L 6.1 5L 6.1 20L 6.1 20L 6.1 20L 6.1 5" cy="30" cx="85.6" j="0" val="53" barHeight="15" barWidth="79.5"></path><path id="SvgjsPath1023" d="M82.6 30L130.6 30L130.6 45L130.6 45L82.6 45L82.6 45C82.6 45 82.6 30 82.6 30 " fill="rgba(0,227,150,1)" fill-opacity="1" stroke-opacity="1" stroke-linecap="square" stroke-width="0" stroke-dasharray="0" class="apexcharts-bar-area" index="1" clip-path="url(#gridRectMaskalumon0b)" pathTo="M 82.6 30L 130.6 30L 130.6 45L 130.6 45L 82.6 45L 82.6 45z" pathFrom="M 82.6 30L 82.6 30L 82.6 45L 82.6 45L 82.6 45L 82.6 30" cy="55" cx="130.6" j="1" val="32" barHeight="15" barWidth="48"></path><path id="SvgjsPath1024" d="M61.6 55L111.1 55L111.1 70L111.1 70L61.6 70L61.6 70C61.6 70 61.6 55 61.6 55 " fill="rgba(0,227,150,1)" fill-opacity="1" stroke-opacity="1" stroke-linecap="square" stroke-width="0" stroke-dasharray="0" class="apexcharts-bar-area" index="1" clip-path="url(#gridRectMaskalumon0b)" pathTo="M 61.6 55L 111.1 55L 111.1 70L 111.1 70L 61.6 70L 61.6 70z" pathFrom="M 61.6 55L 61.6 55L 61.6 70L 61.6 70L 61.6 70L 61.6 55" cy="80" cx="111.1" j="2" val="33" barHeight="15" barWidth="49.5"></path><path id="SvgjsPath1025" d="M55.6 80L69.1 80L69.1 95L69.1 95L55.6 95L55.6 95C55.6 95 55.6 80 55.6 80 " fill="rgba(0,227,150,1)" fill-opacity="1" stroke-opacity="1" stroke-linecap="square" stroke-width="0" stroke-dasharray="0" class="apexcharts-bar-area" index="1" clip-path="url(#gridRectMaskalumon0b)" pathTo="M 55.6 80L 69.1 80L 69.1 95L 69.1 95L 55.6 95L 55.6 95z" pathFrom="M 55.6 80L 55.6 80L 55.6 95L 55.6 95L 55.6 95L 55.6 80" cy="105" cx="69.1" j="3" val="9" barHeight="15" barWidth="13.5"></path></g><g id="SvgjsG1015" class="apexcharts-datalabels" data:realIndex="0"></g><g id="SvgjsG1021" class="apexcharts-datalabels" data:realIndex="1"></g></g><line id="SvgjsLine1042" x1="0" y1="-100" x2="150" y2="-100" stroke="#b6b6b6" stroke-dasharray="0" stroke-width="1" class="apexcharts-ycrosshairs" y="-100"></line><line id="SvgjsLine1043" x1="0" y1="0" x2="150" y2="0" stroke-dasharray="0" stroke-width="0" class="apexcharts-ycrosshairs-hidden"></line><g id="SvgjsG1044" class="apexcharts-yaxis-annotations"></g><g id="SvgjsG1045" class="apexcharts-xaxis-annotations"></g><g id="SvgjsG1046" class="apexcharts-point-annotations"></g></g><g id="SvgjsG1004" class="apexcharts-annotations"></g></svg>